<svg xmlns="http://www.w3.org/2000/svg" viewBox="0 0 234 25.44"><defs><style>.cls-1{fill:#142850;}</style></defs><title>Ativo 4</title><g id="Camada_2" data-name="Camada 2"><g id="Camada_1-2" data-name="Camada 1"><path class="cls-1" d="M18.73,25H8.36q-4.24,0-6.3-1.7A6.41,6.41,0,0,1,0,18.06V7.4Q0,3.62,2.05,1.81T8.32,0h8.46a1.2,1.2,0,0,1,.93.31,1.44,1.44,0,0,1,.29,1V5.69a1.44,1.44,0,0,1-.29,1,1.2,1.2,0,0,1-.93.31h-7a5.13,5.13,0,0,0-1.56.51A.93.93,0,0,0,8,8.78v8.13a1,1,0,0,0,.08,1.26c.26.27.65.4,1.17-.17H12V13.23a1.26,1.26,0,0,1,.3-.94,1.37,1.37,0,0,1,1-.29h5.46a1.37,1.37,0,0,1,1,.29,1.26,1.26,0,0,1,.3.94V23.77a1.26,1.26,0,0,1-.3.94A1.37,1.37,0,0,1,18.73,25Z"/><path class="cls-1" d="M45,18.54a8.2,8.2,0,0,1-.46,2.83,4.7,4.7,0,0,1-1.62,2.16,8.55,8.55,0,0,1-3.21,1.4,22,22,0,0,1-5.19.51,22.17,22.17,0,0,1-5.21-.51,8.51,8.51,0,0,1-3.23-1.4,4.7,4.7,0,0,1-1.62-2.16A8.2,8.2,0,0,1,24,18.54V7a8.1,8.1,0,0,1,.46-2.82A4.75,4.75,0,0,1,26.08,2,8.36,8.36,0,0,1,29.31.59,22.17,22.17,0,0,1,34.52.08a22,22,0,0,1,5.19.51A8.4,8.4,0,0,1,42.92,2a4.75,4.75,0,0,1,1.62,2.18A8.1,8.1,0,0,1,45,7Zm-13-1a1.54,1.54,0,0,0,.54,1.2,4.06,4.06,0,0,0,2.46.48,4.06,4.06,0,0,0,2.46-.48,1.54,1.54,0,0,0,.54-1.2V8a1.5,1.5,0,0,0-.54-1.16A4.06,4.06,0,0,0,35,6.33a4.06,4.06,0,0,0-2.46.48A1.5,1.5,0,0,0,32,8Z"/><path class="cls-1" d="M68.48,25H57.22A1,1,0,0,1,56,23.78V20.22a1.28,1.28,0,0,1,.29-.93,1.33,1.33,0,0,1,1-.29H66.5a.8.8,0,0,0,.67-.29,1.08,1.08,0,0,0,.22-.69,1.31,1.31,0,0,0-.22-.85,1,1,0,0,0-.67-.31l-5.17-.71a7.48,7.48,0,0,1-3.87-1.56A5,5,0,0,1,56,10.53V7a5.4,5.4,0,0,1,1.89-4.43A8,8,0,0,1,63.12,1h9.64a1.33,1.33,0,0,1,.95.29,1.28,1.28,0,0,1,.29.93V5.79s.2.74,0,.94a1.28,1.28,0,0,1-.94.27H65.15a.87.87,0,0,0-.68.3,1.13,1.13,0,0,0-.24.73,1.16,1.16,0,0,0,.24.75.87.87,0,0,0,.68.34l5.07.68a7.54,7.54,0,0,1,3.84,1.57c1,.81,1.46,2.17.94,4.08V19a4,4,0,0,1-1.37,4.43A7.89,7.89,0,0,1,68.48,25Z"/><path class="cls-1" d="M96.73,25H80.2A1,1,0,0,1,79,23.8V2.2a1.27,1.27,0,0,1,.28-.92A1.27,1.27,0,0,1,80.2,1H96.73a1.42,1.42,0,0,1,1,.27,1.12,1.12,0,0,1,.3.87V5.86a1.12,1.12,0,0,1-.3.87,1.42,1.42,0,0,1-1,.27H87v3h6.75a1.41,1.41,0,0,1,1,.28,1.29,1.29,0,0,1,.29.93v3.58a1.28,1.28,0,0,1-.29.93,1.36,1.36,0,0,1-1,.28H87v3h9.73a1.42,1.42,0,0,1,1,.27,1.12,1.12,0,0,1,.3.87v3.72a1.12,1.12,0,0,1-.3.87A1.42,1.42,0,0,1,96.73,25Z"/><path class="cls-1" d="M107.79,25H102.2a1,1,0,0,1-1.2-1.2V2.2a1.27,1.27,0,0,1,.28-.92A1.27,1.27,0,0,1,102.2,1h12.74q3.45,0,4.75,1.55a6,6,0,0,1,1.31,4V8.1a6.67,6.67,0,0,1-.38,2.38,2.53,2.53,0,0,1-1.34,1.42A3.94,3.94,0,0,1,122,13.37a5.13,5.13,0,0,1,1,3.36V23.8a1.37,1.37,0,0,1-.26.92,1.12,1.12,0,0,1-.85.28h-5.68a1.27,1.27,0,0,1-.92-.29,1.29,1.29,0,0,1-.29-.95V18.48a1.81,1.81,0,0,0-.29-1.12,1.19,1.19,0,0,0-1-.36H109v6.76a1.33,1.33,0,0,1-.29.95A1.27,1.27,0,0,1,107.79,25ZM109,7v4h2.52a1.38,1.38,0,0,0,1.18-.42,1.76,1.76,0,0,0,.3-1.05V8.47a1.76,1.76,0,0,0-.3-1.05A1.38,1.38,0,0,0,111.52,7Z"/><path class="cls-1" d="M140.89,25h-8.78a2.22,2.22,0,0,1-1.06-.23,1.61,1.61,0,0,1-.66-.87l-3.31-8.17c-.2-.49-.37-.91-.51-1.28s-.24-.72-.33-1a5.75,5.75,0,0,1-.19-1.05c0-.37,0-.82,0-1.35V2.2a1.27,1.27,0,0,1,.29-.92,1.28,1.28,0,0,1,.93-.28h5.55a1.33,1.33,0,0,1,.92.28,1.19,1.19,0,0,1,.31.92v9.2a3.79,3.79,0,0,0,.06.67,5.7,5.7,0,0,0,.19.7l1.48,4.66a.93.93,0,0,0,.22.45.52.52,0,0,0,.38.12h.34a.52.52,0,0,0,.38-.12.93.93,0,0,0,.22-.45l1.48-4.7a6.66,6.66,0,0,0,.19-.7,3.68,3.68,0,0,0,.06-.66V2.2a1.31,1.31,0,0,1,.27-.92,1.13,1.13,0,0,1,.86-.28h5.65a1.28,1.28,0,0,1,.93.28,1.27,1.27,0,0,1,.29.92V11c0,.53,0,1-.05,1.35a5.75,5.75,0,0,1-.19,1.05q-.13.49-.33,1c-.14.37-.31.79-.51,1.28l-3.31,8.17a1.61,1.61,0,0,1-.66.87A2.22,2.22,0,0,1,140.89,25Z"/><path class="cls-1" d="M151.3,25a1.32,1.32,0,0,1-1-.31,1.37,1.37,0,0,1-.31-1v-4.5a1.16,1.16,0,0,1,.31-.9,1.5,1.5,0,0,1,1-.28H155V7h-2.77a1.22,1.22,0,0,1-.94-.31,1.44,1.44,0,0,1-.29-1V1.31a1.44,1.44,0,0,1,.29-1,1.22,1.22,0,0,1,.94-.31h14.54a1.22,1.22,0,0,1,.94.31,1.44,1.44,0,0,1,.29,1V5.86s-.51.74-.7.93a1,1,0,0,1-.93.21H163V18h3.7a1.32,1.32,0,0,1,1,.31,1.39,1.39,0,0,1,.31,1v4.36a1.37,1.37,0,0,1-.31,1,1.32,1.32,0,0,1-1,.31Z"/><path class="cls-1" d="M187.77,25h-8.35q-4.28,0-6.35-1.67A6.19,6.19,0,0,1,171,18.2V7.83a6.26,6.26,0,0,1,2.07-5.15Q175.14,1,179.42,1h8.35a1.32,1.32,0,0,1,.94.28,1.27,1.27,0,0,1,.29.92V5.82a1.2,1.2,0,0,1-.29.9,1.25,1.25,0,0,1-.92.28h-6.74a2.45,2.45,0,0,0-1.55.41,1.5,1.5,0,0,0-.5,1.23v7.79a1.39,1.39,0,0,0,.5,1.19,2.6,2.6,0,0,0,1.55.38h6.74a1.25,1.25,0,0,1,.92.28,1.2,1.2,0,0,1,.29.9V23.8a1.27,1.27,0,0,1-.29.92A1.32,1.32,0,0,1,187.77,25Z"/><path class="cls-1" d="M210.73,25H194.2a1,1,0,0,1-1.2-1.2V2.2a1.27,1.27,0,0,1,.28-.92A1.27,1.27,0,0,1,194.2,1h16.53a1.42,1.42,0,0,1,1,.27,1.12,1.12,0,0,1,.3.87V5.86a1.12,1.12,0,0,1-.3.87,1.42,1.42,0,0,1-1,.27H201v3h6.75a1.41,1.41,0,0,1,1,.28,1.29,1.29,0,0,1,.29.93v3.58a1.28,1.28,0,0,1-.29.93,1.36,1.36,0,0,1-1,.28H201v3h9.73a1.42,1.42,0,0,1,1,.27,1.12,1.12,0,0,1,.3.87v3.72a1.12,1.12,0,0,1-.3.87A1.42,1.42,0,0,1,210.73,25Z"/><path class="cls-1" d="M226.72,25h-10.5A1,1,0,0,1,215,23.78V20.22a1.28,1.28,0,0,1,.29-.93,1.33,1.33,0,0,1,1-.29h9.26a.8.8,0,0,0,.67-.29,1.08,1.08,0,0,0,.22-.69,1.31,1.31,0,0,0-.22-.85,1,1,0,0,0-.67-.31l-5.17-.71a7.48,7.48,0,0,1-3.87-1.56A5,5,0,0,1,215,10.53V7a5.4,5.4,0,0,1,1.89-4.43A8,8,0,0,1,222.12,1h9.64a1.33,1.33,0,0,1,1,.29,1.28,1.28,0,0,1,.29.93V5.79s-.57.74-.76.94a1.24,1.24,0,0,1-.93.27h-7.93a.89.89,0,0,0-.68.3,1.12,1.12,0,0,0-.23.73,1.16,1.16,0,0,0,.23.75.89.89,0,0,0,.68.34l5.07.68a7.47,7.47,0,0,1,3.84,1.57c1,.81,1.46,2.17,1.71,4.08V19a6.44,6.44,0,0,1-2.13,4.43A7.91,7.91,0,0,1,226.72,25Z"/></g></g></svg>